# xmcd
#
# Track frame offsets:
#  150
#  15974
#  33566
#  51085
#  69108
#  91364
#  110654
#  127026
#  137434
#  156416
#  175876
#  195100
#  211656
#  226114
#  246764
#  260117
#  277443
#  294100
#  315776
#  336416
#
# Disc length: 4728 seconds
#
# Revision: 1
# Processed by: cddbd v1.5.2PL0 Copyright (c) Steve Scherf et al.
# Submitted via: Collectorz.com_Music_Collector 6.11
#
DISCID=15127614
DTITLE=Various Artist - Clubmix Ibiza 2002 [CD2)
DYEAR=2002
DGENRE=Dance - House
TTITLE0=Flip and Fill - Shooting Star
TTITLE1=Scooter - The Logical Song
TTITLE2=Milk Inc - In My Eyes (DJ Philip Remix)
TTITLE3=N-Trance - Forever (Voodoo and Serano Remix)
TTITLE4=Kelly Llorenna - Tell It To My Heart (Flip and Fill Remix)
TTITLE5=Trinity-X - Forever (Flip and Fill Remix)
TTITLE6=Ian Van Dahl - Reason (Extended Mix)
TTITLE7=Interactive - Forever Young (Club Mix)
TTITLE8=Symphony Of Strings - Don't Want Your Love (Connector Remix)
TTITLE9=Frank T.R.A.X. - Nebuchan (O.R.G.A.N. Mix)
TTITLE10=Tillmann Uhrmacher - On The Run (Ocean To Shore Club Extended Mix)
TTITLE11=Jamx - De Leon - Can U Dig It? (Durango 95 Remix)
TTITLE12=Madelyne - Beautiful Child (4 Strings Vocal Mix)
TTITLE13=DJ Encore feat. Engelina - I See Right Through You
TTITLE14=Agnelli and Nelson - Everyday 2002 (Alex Gold Vocal Mix)
TTITLE15=Kosheen - Hungry (Tiesto Remix)
TTITLE16=DJ Tiesto feat. Suzanne Palmer - 643 (Love's On Fire) (Oliver Klein Vocal Mix)
TTITLE17=Beat Pushers - Murto
TTITLE18=Moby - We Are All Made Of Stars (DJ Tiesto Full Vocal Remix)
TTITLE19=Oakenfold - Southern Sun (DJ Tiesto Mix)
EXTD=
EXTT0=
EXTT1=
EXTT2=
EXTT3=
EXTT4=
EXTT5=
EXTT6=
EXTT7=
EXTT8=
EXTT9=
EXTT10=
EXTT11=
EXTT12=
EXTT13=
EXTT14=
EXTT15=
EXTT16=
EXTT17=
EXTT18=
EXTT19=
PLAYORDER=
